<?xml version="1.0" standalone="no"?>
<!DOCTYPE svg PUBLIC "-//W3C//DTD SVG 20010904//EN"
 "http://www.w3.org/TR/2001/REC-SVG-20010904/DTD/svg10.dtd">
<svg version="1.0" xmlns="http://www.w3.org/2000/svg"
 width="1270.000000pt" height="366.000000pt" viewBox="0 0 1270.000000 366.000000"
 preserveAspectRatio="xMidYMid meet">

<g transform="translate(0.000000,366.000000) scale(0.100000,-0.100000)"
fill="white" stroke="none">
<path d="M660 2385 l0 -735 259 0 260 0 3 383 c4 431 5 437 81 549 143 210
440 267 642 123 l48 -34 41 28 c61 42 81 51 133 61 86 16 144 -6 270 -100 l33
-24 22 21 c34 30 63 36 96 19 34 -18 57 -65 47 -98 -8 -27 -687 -713 -727
-734 -39 -20 -54 -18 -90 14 -41 38 -43 81 -3 122 l28 29 -51 78 c-63 97 -72
120 -72 191 0 67 20 114 83 197 25 33 43 64 40 68 -15 24 -92 47 -159 47 -89
0 -162 -34 -211 -98 -59 -78 -63 -107 -63 -494 l0 -348 590 0 c641 0 675 2
804 57 215 90 379 284 432 511 23 96 21 257 -5 355 -34 130 -92 229 -196 332
-103 104 -203 162 -331 195 -74 19 -115 20 -1041 20 l-963 0 0 -735z"/>
<path d="M3820 2580 l0 -340 75 0 74 0 3 93 3 92 125 6 c134 6 172 16 228 64
51 43 75 99 76 176 0 88 -31 151 -97 196 -65 43 -122 53 -317 53 l-170 0 0
-340z m358 196 c61 -31 83 -89 58 -149 -22 -53 -58 -67 -171 -67 l-95 0 0 115
0 115 90 0 c58 0 101 -5 118 -14z"/>
<path d="M4610 2580 l0 -340 265 0 265 0 0 65 0 65 -185 0 -185 0 0 75 0 74
158 3 157 3 0 60 0 60 -157 3 -158 3 0 69 0 70 180 0 180 0 0 65 0 65 -260 0
-260 0 0 -340z"/>
<path d="M5360 2580 l0 -340 265 0 265 0 0 65 0 65 -185 0 -185 0 0 75 0 74
158 3 157 3 0 60 0 60 -157 3 -158 3 0 69 0 70 178 2 177 3 3 63 3 62 -261 0
-260 0 0 -340z"/>
<path d="M6110 2580 l0 -340 250 0 250 0 0 65 0 65 -170 0 -170 0 0 275 0 275
-80 0 -80 0 0 -340z"/>
<path d="M6477 1890 c-103 -26 -201 -111 -237 -207 -27 -70 -30 -187 -6 -251
56 -153 201 -241 382 -229 143 8 247 74 304 191 70 143 39 314 -76 415 -67 59
-137 85 -239 88 -49 1 -107 -2 -128 -7z m205 -146 c66 -33 103 -88 114 -167
29 -206 -223 -326 -364 -173 -108 118 -58 307 96 357 37 12 114 4 154 -17z"/>
<path d="M10063 1886 c-104 -34 -177 -98 -222 -196 -21 -45 -25 -70 -25 -142
0 -79 3 -92 34 -154 45 -87 113 -145 206 -174 230 -71 456 52 494 268 29 163
-49 311 -199 380 -45 21 -74 27 -151 29 -61 2 -110 -2 -137 -11z m230 -148
c135 -75 137 -290 3 -372 -39 -25 -58 -30 -110 -30 -82 0 -144 34 -183 102
-53 90 -30 227 48 284 70 52 165 58 242 16z"/>
<path d="M11762 1882 c-96 -34 -145 -100 -145 -193 0 -105 59 -158 223 -199
106 -26 134 -37 155 -61 24 -26 12 -65 -27 -85 -52 -27 -181 -16 -257 22 l-60
30 -26 -60 c-29 -66 -30 -64 42 -96 157 -71 383 -44 458 54 52 68 51 172 -1
228 -40 41 -66 53 -193 88 -126 34 -149 46 -157 78 -22 84 132 114 271 53 l43
-19 22 54 c12 29 20 59 17 66 -18 48 -267 75 -365 40z"/>
<path d="M3820 1550 l0 -340 75 0 75 0 0 95 0 95 74 0 74 0 62 -91 c34 -50 68
-93 74 -95 7 -3 47 -4 88 -2 l75 3 -64 90 c-92 129 -89 119 -43 149 21 14 51
46 66 72 56 96 28 242 -59 305 -68 49 -121 59 -319 59 l-178 0 0 -340z m388
177 c37 -36 48 -84 28 -131 -22 -52 -58 -66 -171 -66 l-95 0 0 116 0 116 104
-4 c99 -3 106 -4 134 -31z"/>
<path d="M4630 1550 l0 -340 260 0 260 0 0 65 0 65 -185 0 -185 0 0 75 0 75
160 0 160 0 0 65 0 65 -160 0 -160 0 0 70 0 70 180 0 180 0 0 65 0 65 -255 0
-255 0 0 -340z"/>
<path d="M5380 1550 l0 -340 75 0 75 0 0 202 c0 191 1 200 18 185 9 -9 85 -99
167 -201 l150 -185 68 0 67 -1 0 340 0 340 -80 0 -80 0 -2 -200 -3 -201 -164
201 -163 200 -64 0 -64 0 0 -340z"/>
<path d="M7208 1550 l147 -341 79 3 80 3 143 330 c78 182 143 334 143 338 0 4
-35 7 -77 5 l-78 -3 -100 -232 c-55 -128 -103 -233 -106 -233 -3 0 -51 106
-105 235 l-99 235 -87 0 -86 0 146 -340z"/>
<path d="M8141 1873 c-14 -28 -291 -653 -291 -658 0 -3 36 -5 79 -5 l79 0 30
73 31 72 157 0 158 0 29 -72 29 -73 84 0 84 0 -26 58 c-14 31 -82 184 -151
340 l-126 282 -78 0 c-64 0 -80 -3 -88 -17z m139 -268 c27 -66 50 -121 50
-122 0 -2 -47 -3 -104 -3 l-105 0 52 125 c28 68 52 123 54 122 1 -2 25 -57 53
-122z"/>
<path d="M8670 1825 l0 -65 105 0 105 0 0 -275 0 -275 80 0 80 0 0 275 0 275
110 0 110 0 0 65 0 65 -295 0 -295 0 0 -65z"/>
<path d="M9440 1550 l0 -340 80 0 80 0 0 340 0 340 -80 0 -80 0 0 -340z"/>
<path d="M10770 1550 l0 -340 80 0 80 0 2 201 3 202 165 -202 165 -201 67 0
68 0 0 340 0 340 -80 0 -80 0 -2 -202 -3 -203 -165 203 -165 202 -67 0 -68 0
0 -340z"/>
<path d="M660 915 l0 -545 260 0 260 0 0 545 0 545 -260 0 -260 0 0 -545z"/>
<path d="M1370 915 l0 -545 926 0 926 0 -5 278 c-5 298 -10 328 -65 445 -75
160 -202 272 -377 334 l-80 28 -662 3 -663 3 0 -546z"/>
<path d="M5886 790 c-120 -38 -143 -207 -37 -277 45 -30 132 -32 179 -3 93 57
97 204 7 260 -38 24 -108 33 -149 20z m109 -34 c98 -41 97 -184 -2 -228 -148
-65 -255 147 -112 224 41 22 68 23 114 4z"/>
<path d="M6337 786 c-69 -25 -99 -70 -99 -147 0 -94 59 -149 159 -149 76 0
117 25 145 87 36 82 5 167 -76 204 -48 22 -77 23 -129 5z m107 -30 c50 -21 76
-60 76 -117 0 -123 -159 -171 -228 -69 -19 28 -23 44 -19 83 5 52 26 83 72
103 39 17 58 17 99 0z"/>
<path d="M7463 789 c-39 -11 -66 -57 -57 -94 8 -33 38 -53 104 -70 28 -7 58
-19 66 -25 19 -17 18 -54 -3 -71 -22 -19 -105 -16 -137 4 -30 20 -47 4 -22
-21 11 -11 39 -18 84 -20 57 -3 71 -1 95 18 21 17 27 30 27 60 0 47 -21 64
-100 85 -62 16 -80 30 -80 61 0 48 60 64 148 38 16 -5 22 -2 22 9 0 10 -15 20
-37 26 -45 13 -66 13 -110 0z"/>
<path d="M8624 781 c-81 -37 -112 -122 -76 -204 28 -63 69 -87 148 -87 66 0
115 24 100 49 -6 9 -11 9 -21 1 -26 -21 -78 -30 -116 -20 -56 15 -89 60 -89
122 0 43 4 54 33 83 45 45 94 54 147 27 41 -20 62 -13 40 13 -13 16 -72 35
-105 35 -11 0 -38 -9 -61 -19z"/>
<path d="M10195 793 c-36 -9 -65 -44 -65 -79 0 -44 26 -67 99 -87 88 -25 111
-55 70 -93 -26 -24 -92 -25 -136 -2 -26 13 -33 14 -37 2 -9 -23 47 -44 114
-44 51 0 65 4 85 25 32 31 33 75 3 102 -13 11 -49 28 -80 37 -55 16 -88 37
-88 57 0 45 62 70 125 49 43 -14 71 1 36 19 -24 14 -98 22 -126 14z"/>
<path d="M10883 792 c-43 -13 -63 -39 -63 -82 0 -47 16 -60 102 -85 63 -18 81
-33 76 -67 -6 -47 -98 -60 -155 -23 -28 19 -43 0 -19 -23 11 -12 39 -18 89
-20 62 -3 75 -1 94 17 60 57 33 115 -68 144 -76 22 -89 32 -89 63 0 48 60 64
148 38 16 -5 22 -2 22 9 0 27 -84 44 -137 29z"/>
<path d="M3810 640 l0 -150 105 0 c99 0 107 2 130 25 32 31 33 78 2 109 -20
20 -22 26 -10 42 7 10 13 35 13 55 0 57 -24 69 -142 69 l-98 0 0 -150z m180
117 c30 -15 38 -58 15 -81 -12 -12 -35 -16 -86 -16 l-69 0 0 55 0 55 58 0 c31
0 68 -6 82 -13z m14 -137 c36 -13 45 -56 18 -82 -16 -16 -37 -22 -96 -26 l-76
-5 0 62 0 61 64 0 c36 0 76 -4 90 -10z"/>
<path d="M4305 757 c-8 -19 -37 -83 -65 -142 -27 -59 -50 -112 -50 -116 0 -5
7 -9 16 -9 9 0 22 17 31 40 l16 40 87 0 87 0 16 -40 c9 -24 22 -40 32 -40 21
0 18 9 -56 168 -66 143 -88 162 -114 99z m71 -80 l31 -72 -33 -3 c-19 -2 -49
-2 -68 0 l-34 3 31 73 c17 39 34 72 37 72 3 0 19 -33 36 -73z"/>
<path d="M4570 781 c0 -6 24 -11 53 -13 l52 -3 3 -137 c2 -112 5 -138 17 -138
12 0 15 26 17 138 l3 137 53 3 c28 2 52 7 52 13 0 5 -53 9 -125 9 -72 0 -125
-4 -125 -9z"/>
<path d="M4960 640 c0 -127 2 -150 15 -150 12 0 15 14 15 70 l0 70 95 0 95 0
0 -70 c0 -56 3 -70 15 -70 13 0 15 23 15 150 0 127 -2 150 -15 150 -12 0 -15
-14 -15 -65 l0 -65 -95 0 -95 0 0 65 c0 51 -3 65 -15 65 -13 0 -15 -23 -15
-150z"/>
<path d="M5400 640 c0 -127 2 -150 15 -150 11 0 15 12 15 45 l0 45 39 0 c22 0
46 3 54 6 9 3 27 -13 51 -45 20 -28 43 -51 51 -51 20 0 20 3 -16 53 l-31 44
31 31 c43 42 44 101 2 143 -28 28 -33 29 -120 29 l-91 0 0 -150z m165 116 c37
-16 52 -48 41 -92 -9 -33 -63 -56 -124 -52 l-47 3 -3 64 c-2 35 -1 70 2 77 7
19 87 18 131 0z"/>
<path d="M6720 640 c0 -127 2 -150 15 -150 12 0 15 20 15 118 l0 117 58 -97
c31 -54 62 -98 69 -98 6 0 35 42 65 93 l53 92 3 -112 c2 -105 4 -113 22 -113
19 0 20 7 20 150 0 193 -8 196 -99 39 l-64 -111 -64 111 c-36 61 -71 111 -79
111 -11 0 -14 -27 -14 -150z"/>
<path d="M7780 640 c0 -143 1 -150 20 -150 17 0 20 7 20 45 l0 45 43 0 c106 0
157 36 157 111 0 40 -4 51 -31 73 -28 24 -38 26 -120 26 l-89 0 0 -150z m165
116 c37 -16 52 -48 41 -92 -8 -32 -58 -54 -121 -54 l-45 0 0 80 0 80 45 0 c25
0 61 -6 80 -14z"/>
<path d="M8180 640 l0 -150 110 0 c91 0 110 3 110 15 0 12 -17 15 -96 15 l-95
0 3 53 3 52 78 3 c59 2 77 6 77 17 0 12 -17 15 -81 15 l-80 0 3 53 3 52 88 3
c124 4 110 22 -18 22 l-105 0 0 -150z"/>
<path d="M8960 640 c0 -143 1 -150 20 -150 19 0 20 7 20 150 0 143 -1 150 -20
150 -19 0 -20 -7 -20 -150z"/>
<path d="M9247 738 c-14 -29 -43 -94 -66 -144 -22 -51 -41 -94 -41 -98 0 -3 7
-6 16 -6 9 0 22 17 31 40 l16 40 87 0 87 0 16 -40 c9 -24 22 -40 32 -40 21 0
19 6 -54 166 -71 155 -87 166 -124 82z m79 -61 l31 -72 -33 -3 c-19 -2 -49 -2
-68 0 l-34 3 31 73 c17 39 34 72 37 72 3 0 19 -33 36 -73z"/>
<path d="M9580 640 l0 -150 105 0 c87 0 105 3 105 15 0 12 -16 15 -85 15 l-85
0 0 135 c0 128 -1 135 -20 135 -19 0 -20 -7 -20 -150z"/>
<path d="M9930 640 c0 -127 2 -150 15 -150 13 0 15 23 15 150 0 127 -2 150
-15 150 -13 0 -15 -23 -15 -150z"/>
<path d="M10460 780 c0 -5 23 -10 50 -10 l50 0 0 -140 c0 -133 1 -140 20 -140
19 0 20 7 20 140 l0 140 50 0 c28 0 50 5 50 10 0 6 -47 10 -120 10 -73 0 -120
-4 -120 -10z"/>
</g>
</svg>
