<?xml version="1.0" standalone="no"?>
<!DOCTYPE svg PUBLIC "-//W3C//DTD SVG 20010904//EN"
 "http://www.w3.org/TR/2001/REC-SVG-20010904/DTD/svg10.dtd">
<svg version="1.0" xmlns="http://www.w3.org/2000/svg"
 width="2000.000000pt" height="1039.000000pt" viewBox="0 0 2000.000000 1039.000000"
 preserveAspectRatio="xMidYMid meet">

<g transform="translate(0.000000,1039.000000) scale(0.100000,-0.100000)"
fill="rgb(255,255,255)" stroke="none">
<path d="M9573 8782 l-343 -207 0 -178 c0 -107 4 -177 9 -175 6 2 161 86 345
188 l336 185 0 198 c0 108 -1 197 -2 196 -2 0 -157 -94 -345 -207z"/>
<path d="M10080 8793 l0 -198 960 -554 c528 -304 974 -556 992 -560 96 -21
191 55 191 153 0 70 -27 111 -107 160 -53 33 -1602 944 -1988 1170 l-48 28 0
-199z"/>
<path d="M8768 8283 l-298 -166 0 -159 c0 -88 4 -158 8 -156 5 2 140 75 300
163 l292 160 0 163 c0 89 -1 162 -2 162 -2 -1 -137 -76 -300 -167z"/>
<path d="M9069 7942 l-846 -467 845 -3 c465 -1 847 -1 849 1 2 2 2 213 1 470
l-3 465 -846 -466z"/>
<path d="M10080 6711 l0 -1701 845 0 845 0 0 1213 0 1212 -53 29 c-72 41
-1564 903 -1604 928 l-33 20 0 -1701z m1540 -316 l0 -615 -695 0 -695 0 0 615
0 615 695 0 695 0 0 -615z"/>
<path d="M10390 6665 l0 -185 225 0 225 0 0 185 0 185 -225 0 -225 0 0 -185z"/>
<path d="M11000 6665 l0 -185 230 0 230 0 0 185 0 185 -230 0 -230 0 0 -185z"/>
<path d="M10390 6125 l0 -185 225 0 225 0 0 185 0 185 -225 0 -225 0 0 -185z"/>
<path d="M11000 6125 l0 -185 230 0 230 0 0 185 0 185 -230 0 -230 0 0 -185z"/>
<path d="M8028 7817 l-258 -162 0 -123 0 -124 43 25 c23 13 142 79 265 147
l222 122 0 139 c0 76 -3 139 -7 138 -5 0 -124 -73 -265 -162z"/>
<path d="M8080 6855 l0 -455 920 0 920 0 0 455 0 455 -920 0 -920 0 0 -455z"/>
<path d="M8080 6090 l0 -150 110 0 110 0 0 150 0 150 -110 0 -110 0 0 -150z"/>
<path d="M8470 6090 l0 -150 225 0 225 0 0 150 0 150 -225 0 -225 0 0 -150z"/>
<path d="M9080 6090 l0 -150 225 0 225 0 0 150 0 150 -225 0 -225 0 0 -150z"/>
<path d="M9700 6090 l0 -150 110 0 110 0 0 150 0 150 -110 0 -110 0 0 -150z"/>
<path d="M8080 5630 l0 -150 265 0 265 0 0 150 0 150 -265 0 -265 0 0 -150z"/>
<path d="M8770 5630 l0 -150 230 0 230 0 0 150 0 150 -230 0 -230 0 0 -150z"/>
<path d="M9390 5630 l0 -150 265 0 265 0 0 150 0 150 -265 0 -265 0 0 -150z"/>
<path d="M8080 5160 l0 -150 110 0 110 0 0 150 0 150 -110 0 -110 0 0 -150z"/>
<path d="M8470 5160 l0 -150 225 0 225 0 0 150 0 150 -225 0 -225 0 0 -150z"/>
<path d="M9080 5160 l0 -150 225 0 225 0 0 150 0 150 -225 0 -225 0 0 -150z"/>
<path d="M9700 5160 l0 -150 110 0 110 0 0 150 0 150 -110 0 -110 0 0 -150z"/>
<path d="M7826 4845 c-42 -14 -56 -47 -56 -136 0 -92 13 -132 46 -148 36 -16
4332 -16 4368 0 33 15 46 56 46 145 0 83 -10 118 -39 133 -27 15 -4321 20
-4365 6z"/>
<path d="M5392 3608 l3 -813 113 -3 112 -3 0 816 0 815 -115 0 -115 0 2 -812z"/>
<path d="M14650 4235 l0 -146 118 3 117 3 0 140 0 140 -117 3 -118 3 0 -146z"/>
<path d="M14050 4168 l0 -197 -112 -3 -113 -3 -3 -102 -3 -103 116 0 115 0 0
-485 0 -486 113 3 112 3 3 483 2 482 125 0 125 0 0 105 0 105 -125 0 -125 0 0
198 0 197 -115 0 -115 0 0 -197z"/>
<path d="M1545 4318 c-3 -7 -4 -353 -3 -768 l3 -755 110 0 110 0 5 260 5 260
295 6 c255 5 304 8 361 26 167 50 278 159 325 318 25 84 23 248 -4 331 -59
184 -217 304 -427 325 -148 14 -775 11 -780 -3z m821 -228 c76 -26 122 -64
154 -126 21 -41 25 -63 25 -139 0 -75 -4 -97 -23 -135 -32 -61 -58 -87 -117
-118 l-50 -27 -292 -3 -293 -3 0 279 c0 153 3 282 7 285 3 4 124 7 268 7 236
0 267 -2 321 -20z"/>
<path d="M6365 4318 c-3 -7 -4 -353 -3 -768 l3 -755 110 0 110 0 5 280 5 280
225 2 c124 2 230 0 236 -5 5 -4 50 -71 100 -150 204 -326 236 -378 251 -394
14 -15 35 -18 139 -18 68 0 125 4 128 8 2 4 -15 37 -39 72 -46 69 -281 429
-322 493 l-24 38 38 15 c173 70 247 147 284 296 44 176 -5 363 -125 476 -81
77 -176 119 -296 132 -146 15 -819 13 -825 -2z m836 -224 c115 -34 186 -118
196 -233 8 -85 -11 -138 -66 -191 -83 -80 -103 -84 -443 -88 l-298 -3 0 265 0
266 278 0 c227 0 288 -3 333 -16z"/>
<path d="M3335 3981 c-117 -19 -188 -49 -277 -117 -208 -160 -278 -495 -158
-753 78 -166 210 -275 385 -316 77 -19 233 -18 310 0 116 28 242 114 310 212
22 31 75 140 75 152 0 7 -43 11 -122 11 l-123 -1 -25 -40 c-59 -96 -168 -145
-303 -136 -100 7 -169 39 -233 110 -44 49 -98 153 -88 169 3 5 212 8 465 8
l459 0 0 34 c0 150 -37 315 -92 405 -48 79 -135 163 -213 203 -94 49 -263 76
-370 59z m199 -223 c78 -19 153 -85 197 -170 48 -95 74 -88 -306 -88 -379 0
-354 -7 -309 84 78 156 233 221 418 174z"/>
<path d="M4580 3981 c-234 -32 -407 -185 -471 -416 -28 -100 -30 -250 -6 -345
70 -272 288 -439 574 -440 176 0 297 46 406 155 58 59 137 185 137 220 0 13
-20 15 -119 15 l-118 0 -27 -39 c-33 -47 -76 -85 -131 -114 -58 -31 -229 -31
-295 -1 -69 32 -135 97 -169 166 -54 108 -98 98 429 98 l460 0 0 85 c0 225
-105 439 -264 534 -113 68 -273 100 -406 82z m209 -227 c66 -19 149 -93 186
-167 46 -94 71 -87 -310 -87 -261 0 -335 3 -335 13 0 26 50 117 86 157 88 97
219 127 373 84z"/>
<path d="M8220 3981 c-238 -33 -412 -190 -475 -431 -26 -96 -24 -245 4 -345
74 -266 286 -424 568 -425 176 0 297 46 406 155 58 59 137 185 137 220 0 13
-20 15 -119 15 l-118 0 -27 -39 c-33 -47 -76 -85 -131 -114 -57 -31 -228 -31
-295 0 -69 31 -135 96 -169 165 -54 108 -98 98 429 98 l460 0 0 85 c0 225
-105 439 -264 534 -113 68 -273 100 -406 82z m209 -227 c66 -19 149 -93 186
-167 46 -94 71 -87 -310 -87 -261 0 -335 3 -335 13 0 26 50 117 86 157 88 97
219 127 373 84z"/>
<path d="M9508 3980 c-60 -11 -142 -48 -192 -88 -21 -18 -42 -29 -47 -26 -5 3
-9 28 -9 55 l0 50 -112 -3 -113 -3 0 -585 0 -585 113 -3 112 -3 0 359 c0 395
3 422 61 500 140 190 436 156 511 -59 8 -23 14 -158 18 -414 l5 -380 110 0
110 0 0 385 c0 412 -3 443 -51 545 -33 68 -111 156 -169 190 -97 57 -242 84
-347 65z"/>
<path d="M10735 3983 c-69 -7 -168 -41 -230 -78 -116 -70 -191 -164 -242 -307
-25 -66 -27 -86 -27 -218 0 -132 2 -152 27 -218 50 -138 153 -262 268 -322
156 -82 410 -79 570 6 72 38 176 145 215 219 60 115 69 155 69 320 -1 137 -3
156 -27 217 -71 187 -190 304 -361 357 -66 20 -192 32 -262 24z m151 -216
c173 -37 275 -179 275 -385 0 -140 -46 -253 -132 -321 -67 -55 -103 -65 -219
-65 -94 -1 -110 2 -155 26 -53 28 -123 96 -148 144 -80 154 -57 384 50 500 41
46 106 83 171 98 73 18 84 18 158 3z"/>
<path d="M13010 3980 c-176 -28 -330 -141 -409 -299 -49 -99 -65 -175 -65
-301 0 -126 13 -186 68 -300 36 -77 157 -205 226 -240 165 -84 411 -79 552 12
35 22 65 44 66 49 2 5 8 9 13 9 5 0 9 -25 9 -55 0 -66 3 -67 135 -63 l90 3 0
585 0 585 -110 0 -110 0 -3 -52 c-2 -29 -7 -53 -12 -53 -5 0 -21 11 -37 24
-93 77 -270 119 -413 96z m192 -214 c174 -37 271 -175 272 -386 0 -80 -4 -106
-27 -167 -35 -90 -90 -153 -165 -190 -52 -25 -67 -28 -162 -28 -94 1 -110 3
-155 27 -86 45 -140 107 -176 203 -19 49 -23 79 -23 165 0 92 4 112 27 163 54
119 134 187 249 212 81 17 81 17 160 1z"/>
<path d="M15540 3981 c-299 -41 -496 -283 -493 -606 1 -180 55 -317 168 -430
117 -118 235 -165 414 -165 286 0 496 165 561 443 25 111 25 203 0 313 -49
211 -177 357 -369 419 -78 26 -200 37 -281 26z m207 -227 c60 -16 153 -95 183
-154 28 -56 50 -151 50 -221 0 -62 -25 -173 -50 -219 -24 -44 -95 -112 -145
-138 -45 -24 -61 -27 -155 -27 -125 0 -175 19 -250 94 -138 138 -142 424 -8
576 86 99 224 132 375 89z"/>
<path d="M16850 3980 c-75 -14 -131 -38 -185 -80 -29 -22 -55 -40 -58 -40 -4
0 -7 25 -7 55 l0 55 -115 0 -115 0 0 -590 0 -591 113 3 112 3 5 385 5 385 27
47 c136 231 457 210 541 -36 6 -18 13 -187 16 -406 l6 -375 107 -3 107 -3 7
26 c3 14 4 190 1 393 -4 331 -6 374 -24 433 -26 82 -42 113 -91 176 -47 59
-131 117 -207 143 -66 23 -182 32 -245 20z"/>
<path d="M17940 3980 c-113 -15 -223 -63 -277 -121 -12 -13 -34 -50 -48 -82
-21 -46 -27 -73 -27 -135 -1 -179 94 -264 372 -332 69 -17 153 -38 187 -47
125 -31 172 -70 173 -144 0 -41 -4 -51 -35 -78 -47 -41 -102 -55 -220 -56 -85
0 -107 3 -147 23 -60 29 -104 80 -119 134 -6 24 -13 49 -15 56 -4 14 -219 18
-228 3 -10 -15 15 -124 41 -179 51 -108 175 -199 312 -228 36 -7 110 -14 164
-14 180 0 321 50 400 141 59 68 76 118 76 219 1 102 -17 149 -78 205 -76 71
-153 103 -346 145 -225 49 -298 82 -309 143 -18 97 61 147 233 147 71 0 106
-5 136 -19 51 -23 92 -71 101 -116 l6 -35 115 0 115 0 -7 48 c-20 141 -123
256 -272 302 -74 23 -212 32 -303 20z"/>
<path d="M11390 3962 c0 -5 22 -65 49 -133 28 -68 75 -189 106 -269 31 -80 76
-194 100 -255 24 -60 60 -153 80 -205 20 -52 41 -106 47 -120 6 -14 24 -61 42
-105 l31 -80 100 -3 c55 -2 109 -1 120 2 12 3 27 23 37 48 19 48 127 323 182
466 20 50 52 134 72 185 20 50 60 155 90 232 30 77 63 160 74 185 10 24 16 48
14 52 -3 5 -58 8 -123 8 l-117 0 -21 -57 c-12 -32 -67 -179 -123 -328 -56
-148 -105 -281 -110 -295 -27 -78 -68 -174 -76 -177 -5 -2 -24 39 -43 89 -40
110 -31 87 -173 463 l-114 300 -122 3 c-68 1 -122 -1 -122 -6z"/>
<path d="M14655 3958 c-3 -7 -4 -272 -3 -588 l3 -575 113 -3 112 -3 0 591 0
590 -110 0 c-79 0 -112 -4 -115 -12z"/>
<path d="M11995 2208 c-8 -25 -145 -578 -145 -588 0 -5 17 -10 38 -10 l38 0
33 138 c32 128 37 140 75 178 47 47 100 63 143 42 50 -24 51 -53 11 -214 l-36
-145 41 3 41 3 33 130 c47 189 41 255 -27 290 -42 21 -123 19 -170 -5 -48 -24
-47 -26 -16 98 l24 92 -39 0 c-23 0 -42 -5 -44 -12z"/>
<path d="M17191 2183 c-21 -81 -141 -563 -141 -568 0 -3 17 -5 39 -5 l39 0 71
288 c40 158 74 295 77 305 4 14 -1 17 -35 17 -38 0 -41 -2 -50 -37z"/>
<path d="M11746 2125 l-18 -75 -43 0 c-41 0 -43 -1 -53 -40 l-10 -40 43 0 43
0 -44 -172 c-24 -95 -44 -176 -44 -180 0 -5 17 -8 39 -8 l39 0 44 178 44 177
51 3 c48 3 51 5 57 34 9 47 9 48 -39 48 -25 0 -45 3 -45 8 0 4 7 32 15 62 21
78 20 80 -23 80 l-38 0 -18 -75z"/>
<path d="M16511 2156 c-6 -25 -11 -48 -11 -51 0 -3 19 -5 42 -3 41 3 42 4 54
51 l12 47 -43 0 c-42 0 -43 -1 -54 -44z"/>
<path d="M17351 2156 c-6 -25 -11 -48 -11 -51 0 -3 19 -5 42 -3 41 3 42 4 54
51 l12 47 -43 0 c-42 0 -43 -1 -54 -44z"/>
<path d="M17966 2125 l-18 -75 -43 0 c-41 0 -43 -1 -53 -40 l-10 -40 43 0 43
0 -44 -172 c-24 -95 -44 -176 -44 -180 0 -5 17 -8 39 -8 l39 0 44 178 44 177
51 3 c48 3 51 5 57 34 9 47 9 48 -39 48 -25 0 -45 3 -45 8 0 4 7 32 15 62 21
78 20 80 -23 80 l-38 0 -18 -75z"/>
<path d="M14700 2181 c-65 -21 -122 -66 -149 -118 -6 -12 -11 -42 -11 -66 0
-70 36 -94 216 -146 39 -11 78 -29 88 -40 16 -17 16 -23 4 -47 -7 -16 -28 -38
-46 -50 -93 -63 -271 -23 -260 58 4 27 3 28 -40 28 l-44 0 4 -55 c5 -60 28
-93 83 -123 48 -26 196 -21 263 8 61 26 107 74 121 127 14 50 14 59 -4 93 -19
36 -69 63 -172 91 -43 12 -90 28 -105 35 -62 32 -12 116 76 129 108 16 176
-11 176 -71 0 -21 4 -24 40 -24 41 0 45 5 41 55 -7 80 -60 118 -175 122 -45 1
-92 -1 -106 -6z"/>
<path d="M10671 2143 c-21 -81 -131 -523 -131 -528 0 -3 71 -5 158 -5 184 0
241 12 289 62 36 37 63 94 63 133 0 31 -24 81 -42 88 -9 3 -3 16 18 38 44 47
56 74 57 126 0 48 -23 89 -64 110 -16 9 -76 13 -181 13 l-157 0 -10 -37z m310
-53 c30 -17 25 -73 -10 -112 l-29 -33 -122 -3 c-114 -4 -122 -3 -117 15 3 10
11 38 17 63 6 25 13 53 16 63 5 15 19 17 115 17 61 0 119 -5 130 -10z m-57
-240 c40 -15 53 -53 34 -94 -25 -52 -67 -66 -202 -66 -64 0 -116 3 -116 8 0 4
4 23 9 42 6 19 15 54 21 78 l11 42 109 0 c60 0 120 -4 134 -10z"/>
<path d="M12619 2051 c-20 -4 -53 -17 -73 -29 -47 -28 -50 -27 -42 3 6 24 4
25 -33 25 -46 0 -34 28 -101 -240 -22 -91 -43 -173 -46 -182 -4 -15 1 -18 35
-18 39 0 41 1 51 43 39 151 53 192 77 228 30 45 97 89 136 89 22 0 28 6 36 38
6 20 11 40 11 45 0 8 1 8 -51 -2z"/>
<path d="M11265 2032 c-54 -25 -129 -111 -149 -169 -34 -100 -11 -198 56 -238
42 -25 139 -26 185 -2 40 21 57 22 49 1 -5 -12 2 -15 36 -12 l42 3 53 210 c29
116 53 213 53 218 0 4 -18 7 -40 7 -28 0 -40 -4 -40 -14 0 -25 -20 -29 -42
-10 -30 28 -150 31 -203 6z m174 -87 c37 -36 34 -109 -6 -172 -78 -127 -253
-120 -253 9 0 48 29 114 64 147 58 54 150 62 195 16z"/>
<path d="M12785 2029 c-110 -55 -182 -190 -161 -303 10 -54 57 -101 113 -115
159 -40 324 98 326 274 1 72 -18 114 -66 144 -47 29 -155 29 -212 0z m174 -83
c51 -52 17 -182 -62 -234 -53 -35 -135 -38 -167 -6 -46 46 -27 166 35 224 56
53 149 61 194 16z"/>
<path d="M13255 2029 c-110 -55 -182 -190 -161 -303 10 -54 57 -101 113 -115
159 -40 324 98 326 274 1 72 -18 114 -66 144 -47 29 -155 29 -212 0z m174 -83
c51 -52 17 -182 -62 -234 -53 -35 -135 -38 -167 -6 -46 46 -27 166 35 224 56
53 149 61 194 16z"/>
<path d="M13641 2013 c-6 -21 -28 -112 -51 -203 -22 -91 -43 -173 -46 -182 -4
-15 1 -18 35 -18 46 0 37 -19 87 183 31 124 55 158 124 177 38 10 46 9 69 -8
14 -10 27 -30 29 -44 2 -20 -38 -203 -64 -290 -4 -15 1 -18 35 -18 46 0 37
-19 87 183 31 123 55 158 123 177 36 9 47 9 67 -5 13 -8 27 -27 30 -40 5 -21
-31 -195 -62 -297 -4 -15 1 -18 35 -18 38 0 41 2 50 38 66 250 72 293 46 342
-23 44 -53 60 -113 60 -52 0 -99 -17 -134 -47 -16 -14 -21 -13 -53 16 -31 27
-43 31 -93 31 -36 0 -66 -6 -78 -15 -25 -19 -34 -19 -34 0 0 11 -11 15 -40 15
-37 0 -40 -2 -49 -37z"/>
<path d="M15061 2013 c-21 -81 -141 -563 -141 -568 0 -3 18 -5 39 -5 l39 0 23
95 c13 52 26 100 30 106 4 8 17 3 39 -12 48 -36 137 -33 208 6 63 34 96 71
129 143 46 98 27 209 -42 252 -40 25 -138 27 -193 4 -43 -18 -48 -18 -44 2 2
10 -8 14 -37 14 -38 0 -41 -2 -50 -37z m254 -47 c41 -17 55 -42 55 -96 0 -134
-160 -240 -249 -164 -27 22 -31 32 -31 75 0 81 46 151 120 183 44 19 62 19
105 2z"/>
<path d="M15645 2029 c-55 -27 -102 -75 -133 -134 -36 -69 -38 -174 -4 -223
46 -63 125 -84 218 -57 48 14 70 28 114 73 l55 57 -44 3 c-32 2 -49 -2 -65
-16 -75 -69 -182 -67 -214 3 -25 56 -27 55 163 55 l175 0 7 28 c13 45 8 125
-10 159 -9 17 -32 41 -50 52 -47 29 -155 29 -212 0z m171 -81 c12 -13 24 -34
26 -48 l3 -25 -127 -3 c-82 -2 -128 1 -128 8 0 20 56 71 95 85 51 19 103 12
131 -17z"/>
<path d="M16114 2031 c-161 -73 -225 -326 -101 -401 94 -58 252 -13 321 90
l26 40 -43 0 c-35 0 -49 -6 -72 -30 -56 -58 -154 -65 -195 -13 -26 33 -26 101
0 152 58 114 215 148 251 54 7 -19 16 -23 49 -23 35 0 40 3 40 23 0 32 -35 84
-72 107 -44 27 -147 27 -204 1z"/>
<path d="M16485 2038 c-6 -17 -105 -416 -105 -423 0 -3 17 -5 39 -5 l39 0 55
220 55 220 -40 0 c-22 0 -41 -5 -43 -12z"/>
<path d="M16729 2025 c-124 -64 -191 -230 -137 -335 44 -86 148 -112 250 -62
37 19 38 19 38 1 0 -15 8 -19 39 -19 l39 0 55 220 55 220 -40 0 c-31 0 -41 -4
-45 -20 -7 -24 -5 -24 -45 0 -48 29 -148 27 -209 -5z m189 -81 c57 -64 -3
-216 -101 -253 -51 -20 -94 -13 -129 18 -29 26 -33 35 -32 79 1 27 9 62 17 78
52 100 186 143 245 78z"/>
<path d="M17325 2038 c-6 -17 -105 -416 -105 -423 0 -3 17 -5 39 -5 l39 0 55
220 55 220 -40 0 c-22 0 -41 -5 -43 -12z"/>
<path d="M17545 2036 c-36 -15 -82 -67 -91 -101 -18 -72 18 -111 133 -139 75
-19 93 -30 93 -56 0 -30 -37 -53 -95 -58 -66 -5 -105 15 -105 53 0 22 -4 25
-39 25 -44 0 -53 -15 -39 -67 18 -71 107 -105 214 -83 130 27 198 167 110 225
-14 9 -58 25 -97 35 -83 21 -109 41 -93 68 28 44 128 58 164 22 11 -11 20 -24
20 -30 0 -5 18 -10 40 -10 34 0 40 3 40 20 0 29 -26 76 -52 94 -28 20 -160 21
-203 2z"/>
<path d="M18210 2028 c-34 -17 -51 -35 -69 -71 -36 -74 -12 -125 68 -146 23
-6 58 -15 79 -21 55 -14 76 -32 68 -58 -10 -31 -56 -52 -111 -52 -59 0 -82 12
-90 50 -6 27 -10 30 -46 30 -37 0 -39 -2 -39 -30 0 -44 25 -87 63 -107 49 -27
151 -23 212 8 59 29 85 62 92 117 8 60 -13 87 -84 108 -143 41 -138 39 -141
67 -4 33 38 57 98 57 51 0 80 -15 80 -40 0 -17 7 -20 40 -20 36 0 40 3 40 25
0 38 -21 75 -51 91 -45 23 -156 18 -209 -8z"/>
<path d="M10106 1893 c-2 -10 -7 -28 -11 -40 -6 -23 -6 -23 108 -23 l115 0 10
40 10 40 -113 0 c-100 0 -114 -2 -119 -17z"/>
</g>
</svg>
