<?xml version="1.0" encoding="UTF-8" standalone="no"?>
<svg
   xmlns:dc="http://purl.org/dc/elements/1.1/"
   xmlns:cc="http://creativecommons.org/ns#"
   xmlns:rdf="http://www.w3.org/1999/02/22-rdf-syntax-ns#"
   xmlns:svg="http://www.w3.org/2000/svg"
   xmlns="http://www.w3.org/2000/svg"
   xmlns:sodipodi="http://sodipodi.sourceforge.net/DTD/sodipodi-0.dtd"
   xmlns:inkscape="http://www.inkscape.org/namespaces/inkscape"
   version="1.1"
   id="svg2"
   xml:space="preserve"
   width="3333.3333"
   height="1866.6667"
   viewBox="0 0 3333.3333 1866.6667"
   sodipodi:docname="V_K0405.ai"><metadata
     id="metadata8"><rdf:RDF><cc:Work
         rdf:about=""><dc:format>image/svg+xml</dc:format><dc:type
           rdf:resource="http://purl.org/dc/dcmitype/StillImage" /></cc:Work></rdf:RDF></metadata><defs
     id="defs6"><clipPath
       clipPathUnits="userSpaceOnUse"
       id="clipPath18"><path
         d="M 0,1400 H 2500 V 0 H 0 Z"
         id="path16" /></clipPath></defs><sodipodi:namedview
     pagecolor="#ffffff"
     bordercolor="#666666"
     borderopacity="1"
     objecttolerance="10"
     gridtolerance="10"
     guidetolerance="10"
     inkscape:pageopacity="0"
     inkscape:pageshadow="2"
     inkscape:window-width="640"
     inkscape:window-height="480"
     id="namedview4" /><g
     id="g10"
     inkscape:groupmode="layer"
     inkscape:label="V_K0405"
     transform="matrix(1.3333333,0,0,-1.3333333,0,1866.6667)"><g
       id="g12"><g
         id="g14"
         clip-path="url(#clipPath18)"><g
           id="g20"
           transform="translate(930.3928,770.6855)"><path
             d="m 0,0 c 0,-20.369 -8.259,-38.812 -21.601,-52.134 -13.341,-13.361 -31.765,-21.6 -52.134,-21.6 h -110.467 v 67.342 c 0,14.978 12.187,27.184 27.183,27.184 6.238,0 11.957,-2.137 16.558,-5.679 l -8.067,-10.589 c -6.777,-8.914 -7.066,-21.158 -0.713,-30.379 l 7.894,-11.494 -3.254,-3.253 c -3.388,-3.389 -3.388,-8.876 0,-12.264 1.675,-1.694 3.909,-2.541 6.122,-2.541 2.214,0 4.428,0.847 6.123,2.541 l 68.055,68.055 c 3.369,3.389 3.369,8.875 0,12.245 -3.388,3.388 -8.875,3.388 -12.264,0 l -2.233,-2.233 -10.145,7.546 c -8.722,6.488 -20.562,6.835 -29.668,0.886 l -7.835,-5.121 c -8.163,7.161 -18.867,11.532 -30.573,11.532 -25.605,0 -46.435,-20.831 -46.435,-46.436 v -67.342 h -52.442 V 73.734 H -73.735 C -33.017,73.734 0,40.717 0,0"
             style="fill:#262262;fill-opacity:1;fill-rule:nonzero;stroke:none"
             id="path22" /></g><path
           d="m 674.497,677.892 h 52.442 V 569.08 h -52.442 z"
           style="fill:#262262;fill-opacity:1;fill-rule:nonzero;stroke:none"
           id="path24" /><g
           id="g26"
           transform="translate(930.3928,613.7832)"><path
             d="M 0,0 V -44.703 H -184.202 V 64.108 H -64.109 C -28.705,64.108 0,35.403 0,0"
             style="fill:#262262;fill-opacity:1;fill-rule:nonzero;stroke:none"
             id="path28" /></g><g
           id="g30"
           transform="translate(1033.5271,799.2637)"><path
             d="m 0,0 c 0,7.476 -4.854,11.845 -14.467,11.845 h -12.816 v -23.593 h 12.816 C -4.854,-11.748 0,-7.379 0,0 m 15.923,0 c 0,-15.146 -11.36,-24.564 -29.516,-24.564 h -13.69 v -18.739 h -15.729 v 67.965 h 29.419 C 4.563,24.662 15.923,15.244 15.923,0"
             style="fill:#262262;fill-opacity:1;fill-rule:nonzero;stroke:none"
             id="path32" /></g><g
           id="g34"
           transform="translate(1122.9475,768.583)"><path
             d="M 0,0 V -12.622 H -52.624 V 55.342 H -1.262 V 42.72 h -35.73 V 27.962 H -5.437 V 15.729 H -36.992 V 0 Z"
             style="fill:#262262;fill-opacity:1;fill-rule:nonzero;stroke:none"
             id="path36" /></g><g
           id="g38"
           transform="translate(1197.803,768.583)"><path
             d="M 0,0 V -12.622 H -52.624 V 55.342 H -1.262 V 42.72 h -35.73 V 27.962 H -5.437 V 15.729 H -36.992 V 0 Z"
             style="fill:#262262;fill-opacity:1;fill-rule:nonzero;stroke:none"
             id="path40" /></g><g
           id="g42"
           transform="translate(1220.0354,823.9253)"><path
             d="M 0,0 H 15.729 V -55.148 H 49.808 V -67.964 H 0 Z"
             style="fill:#262262;fill-opacity:1;fill-rule:nonzero;stroke:none"
             id="path44" /></g><g
           id="g46"
           transform="translate(1019.0602,708.2251)"><path
             d="M 0,0 H -12.816 V -23.69 H 0 c 9.612,0 14.467,4.466 14.467,11.845 C 14.467,-4.369 9.612,0 0,0 M 14.758,-55.148 1.65,-36.215 H 0.874 -12.816 V -55.148 H -28.545 V 12.816 H 0.874 c 18.156,0 29.516,-9.418 29.516,-24.661 0,-10.195 -5.146,-17.671 -13.981,-21.457 l 15.243,-21.846 z"
             style="fill:#262262;fill-opacity:1;fill-rule:nonzero;stroke:none"
             id="path48" /></g><g
           id="g50"
           transform="translate(1124.2078,665.6992)"><path
             d="M 0,0 V -12.622 H -52.624 V 55.342 H -1.262 V 42.72 h -35.73 V 27.963 H -5.437 V 15.729 H -36.992 V 0 Z"
             style="fill:#262262;fill-opacity:1;fill-rule:nonzero;stroke:none"
             id="path52" /></g><g
           id="g54"
           transform="translate(1208.7732,721.0415)"><path
             d="M 0,0 V -67.964 H -12.913 L -46.798,-26.7 V -67.964 H -62.333 V 0 h 13.01 l 33.788,-41.264 V 0 Z"
             style="fill:#262262;fill-opacity:1;fill-rule:nonzero;stroke:none"
             id="path56" /></g><g
           id="g58"
           transform="translate(1288.7756,687.0586)"><path
             d="m 0,0 c 0,12.914 -9.126,21.749 -21.263,21.749 -12.136,0 -21.263,-8.835 -21.263,-21.749 0,-12.912 9.127,-21.748 21.263,-21.748 C -9.126,-21.748 0,-12.912 0,0 m -58.449,0 c 0,20.196 15.729,35.148 37.186,35.148 21.36,0 37.186,-14.855 37.186,-35.148 0,-20.291 -15.826,-35.146 -37.186,-35.146 -21.457,0 -37.186,14.952 -37.186,35.146"
             style="fill:#262262;fill-opacity:1;fill-rule:nonzero;stroke:none"
             id="path60" /></g><g
           id="g62"
           transform="translate(1389.3611,721.0415)"><path
             d="M 0,0 -29.419,-67.964 H -44.954 L -74.275,0 h 16.991 L -36.604,-48.545 -15.632,0 Z"
             style="fill:#262262;fill-opacity:1;fill-rule:nonzero;stroke:none"
             id="path64" /></g><g
           id="g66"
           transform="translate(1442.2742,679.583)"><path
             d="M 0,0 -10.777,26.021 -21.554,0 Z m 4.952,-11.942 h -31.555 l -6.02,-14.564 H -48.74 l 30.293,67.964 h 15.534 l 30.39,-67.964 H 10.971 Z"
             style="fill:#262262;fill-opacity:1;fill-rule:nonzero;stroke:none"
             id="path68" /></g><g
           id="g70"
           transform="translate(1497.2273,708.2251)"><path
             d="M 0,0 H -21.749 V 12.816 H 37.478 V 0 H 15.729 V -55.148 H 0 Z"
             style="fill:#262262;fill-opacity:1;fill-rule:nonzero;stroke:none"
             id="path72" /></g><path
           d="m 1552.86,721.042 h 15.729 v -67.964 h -15.729 z"
           style="fill:#262262;fill-opacity:1;fill-rule:nonzero;stroke:none"
           id="path74" /><g
           id="g76"
           transform="translate(1648.5906,687.0586)"><path
             d="m 0,0 c 0,12.914 -9.126,21.749 -21.263,21.749 -12.136,0 -21.263,-8.835 -21.263,-21.749 0,-12.912 9.127,-21.748 21.263,-21.748 C -9.126,-21.748 0,-12.912 0,0 m -58.449,0 c 0,20.196 15.729,35.148 37.186,35.148 21.36,0 37.186,-14.855 37.186,-35.148 0,-20.291 -15.826,-35.146 -37.186,-35.146 -21.457,0 -37.186,14.952 -37.186,35.146"
             style="fill:#262262;fill-opacity:1;fill-rule:nonzero;stroke:none"
             id="path78" /></g><g
           id="g80"
           transform="translate(1748.3992,721.0415)"><path
             d="M 0,0 V -67.964 H -12.913 L -46.798,-26.7 V -67.964 H -62.333 V 0 h 13.01 l 33.788,-41.264 V 0 Z"
             style="fill:#262262;fill-opacity:1;fill-rule:nonzero;stroke:none"
             id="path82" /></g><g
           id="g84"
           transform="translate(1768.884,659.7764)"><path
             d="m 0,0 5.34,11.845 c 5.728,-4.174 14.272,-7.087 22.428,-7.087 9.321,0 13.107,3.106 13.107,7.282 0,12.719 -39.516,3.981 -39.516,29.224 0,11.554 9.321,21.166 28.642,21.166 8.544,0 17.283,-2.039 23.593,-6.02 L 48.74,44.468 c -6.311,3.593 -12.816,5.34 -18.836,5.34 -9.321,0 -12.913,-3.495 -12.913,-7.767 0,-12.524 39.516,-3.884 39.516,-28.837 C 56.507,1.845 47.089,-7.864 27.671,-7.864 16.894,-7.864 6.02,-4.66 0,0"
             style="fill:#262262;fill-opacity:1;fill-rule:nonzero;stroke:none"
             id="path86" /></g><g
           id="g88"
           transform="translate(1012.7131,589.2246)"><path
             d="M 0,0 C 0,3.987 -2.936,5.74 -8.327,5.74 H -19.151 V -5.785 H -8.327 C -2.936,-5.785 0,-4.032 0,0 M -19.151,19.545 V 8.414 h 9.773 c 4.908,0 7.756,1.884 7.756,5.565 0,3.681 -2.848,5.566 -7.756,5.566 z M 3.243,-0.264 c 0,-5.215 -3.857,-8.195 -11.526,-8.195 h -14.111 v 30.677 h 13.235 c 6.836,0 10.781,-2.893 10.781,-7.888 0,-3.506 -1.885,-5.829 -4.69,-6.969 3.944,-0.876 6.311,-3.462 6.311,-7.625"
             style="fill:#262262;fill-opacity:1;fill-rule:nonzero;stroke:none"
             id="path90" /></g><g
           id="g92"
           transform="translate(1050.1814,591.5898)"><path
             d="M 0,0 -7.362,16.479 -14.725,0 Z m 1.183,-2.629 h -17.091 l -3.681,-8.195 h -3.375 L -8.94,19.853 h 3.199 L 8.282,-10.824 H 4.864 Z"
             style="fill:#262262;fill-opacity:1;fill-rule:nonzero;stroke:none"
             id="path94" /></g><g
           id="g96"
           transform="translate(1076.738,608.6377)"><path
             d="M 0,0 H -10.78 V 2.805 H 14.023 V 0 H 3.243 V -27.872 H 0 Z"
             style="fill:#262262;fill-opacity:1;fill-rule:nonzero;stroke:none"
             id="path98" /></g><g
           id="g100"
           transform="translate(1130.3333,611.4424)"><path
             d="m 0,0 v -30.677 h -3.199 v 14.156 h -19.195 v -14.156 h -3.242 V 0 h 3.242 v -13.673 h 19.195 l 0,13.673 z"
             style="fill:#262262;fill-opacity:1;fill-rule:nonzero;stroke:none"
             id="path102" /></g><g
           id="g104"
           transform="translate(1169.8611,600.9248)"><path
             d="m 0,0 c 0,4.908 -3.243,7.713 -9.378,7.713 h -8.151 V -7.669 h 8.151 C -3.243,-7.669 0,-4.82 0,0 m 0.175,-20.159 -7.011,9.861 c -0.789,-0.088 -1.578,-0.132 -2.455,-0.132 h -8.238 v -9.729 h -3.243 V 10.518 H -9.291 C -1.49,10.518 3.243,6.573 3.243,0 c 0,-4.82 -2.542,-8.194 -7.012,-9.642 l 7.494,-10.517 z"
             style="fill:#262262;fill-opacity:1;fill-rule:nonzero;stroke:none"
             id="path106" /></g><g
           id="g108"
           transform="translate(1215.7869,596.1045)"><path
             d="m 0,0 c 0,7.318 -5.478,12.708 -12.84,12.708 -7.407,0 -12.928,-5.39 -12.928,-12.708 0,-7.319 5.521,-12.709 12.928,-12.709 C -5.478,-12.709 0,-7.319 0,0 m -28.967,0 c 0,8.939 6.836,15.601 16.127,15.601 9.202,0 16.083,-6.618 16.083,-15.601 0,-8.983 -6.881,-15.602 -16.083,-15.602 -9.291,0 -16.127,6.662 -16.127,15.602"
             style="fill:#262262;fill-opacity:1;fill-rule:nonzero;stroke:none"
             id="path110" /></g><g
           id="g112"
           transform="translate(1261.3186,596.1045)"><path
             d="m 0,0 c 0,7.318 -5.478,12.708 -12.84,12.708 -7.407,0 -12.928,-5.39 -12.928,-12.708 0,-7.319 5.521,-12.709 12.928,-12.709 C -5.478,-12.709 0,-7.319 0,0 m -28.967,0 c 0,8.939 6.836,15.601 16.127,15.601 9.203,0 16.083,-6.618 16.083,-15.601 0,-8.983 -6.88,-15.602 -16.083,-15.602 -9.291,0 -16.127,6.662 -16.127,15.602"
             style="fill:#262262;fill-opacity:1;fill-rule:nonzero;stroke:none"
             id="path114" /></g><g
           id="g116"
           transform="translate(1312.4592,611.4424)"><path
             d="m 0,0 v -30.677 h -3.112 v 24.541 l -12.051,-20.64 h -1.534 l -12.051,20.509 v -24.41 H -31.86 V 0 h 2.673 L -15.864,-22.744 -2.673,0 Z"
             style="fill:#262262;fill-opacity:1;fill-rule:nonzero;stroke:none"
             id="path118" /></g><g
           id="g120"
           transform="translate(1348.5242,584.4912)"><path
             d="m 0,0 1.271,2.498 c 2.191,-2.147 6.091,-3.726 10.123,-3.726 5.741,0 8.239,2.411 8.239,5.435 0,8.414 -18.888,3.243 -18.888,14.593 0,4.513 3.506,8.414 11.307,8.414 3.462,0 7.055,-1.008 9.509,-2.717 l -1.095,-2.586 c -2.63,1.709 -5.697,2.542 -8.414,2.542 -5.61,0 -8.108,-2.498 -8.108,-5.565 0,-8.414 18.888,-3.33 18.888,-14.506 0,-4.514 -3.594,-8.37 -11.438,-8.37 C 6.793,-3.988 2.279,-2.366 0,0"
             style="fill:#262262;fill-opacity:1;fill-rule:nonzero;stroke:none"
             id="path122" /></g><g
           id="g124"
           transform="translate(1407.9475,600.9248)"><path
             d="m 0,0 c 0,4.908 -3.243,7.713 -9.378,7.713 h -8.151 V -7.625 h 8.151 C -3.243,-7.625 0,-4.82 0,0 m 3.243,0 c 0,-6.53 -4.733,-10.474 -12.534,-10.474 h -8.238 v -9.685 h -3.243 V 10.518 H -9.291 C -1.49,10.518 3.243,6.573 3.243,0"
             style="fill:#262262;fill-opacity:1;fill-rule:nonzero;stroke:none"
             id="path126" /></g><g
           id="g128"
           transform="translate(1448.6589,583.5703)"><path
             d="M 0,0 V -2.805 H -21.692 V 27.872 H -0.657 V 25.067 H -18.45 V 14.155 h 15.864 v -2.76 H -18.45 V 0 Z"
             style="fill:#262262;fill-opacity:1;fill-rule:nonzero;stroke:none"
             id="path130" /></g><g
           id="g132"
           transform="translate(1462.1555,596.1045)"><path
             d="m 0,0 c 0,8.983 6.836,15.601 16.083,15.601 4.47,0 8.502,-1.491 11.219,-4.47 l -2.06,-2.06 c -2.498,2.541 -5.565,3.637 -9.071,3.637 C 8.765,12.708 3.199,7.274 3.199,0 c 0,-7.274 5.566,-12.709 12.972,-12.709 3.506,0 6.573,1.096 9.071,3.681 l 2.06,-2.059 C 24.585,-14.067 20.553,-15.602 16.04,-15.602 6.836,-15.602 0,-8.983 0,0"
             style="fill:#262262;fill-opacity:1;fill-rule:nonzero;stroke:none"
             id="path134" /></g><path
           d="m 1505.145,611.442 h 3.243 v -30.677 h -3.243 z"
           style="fill:#262262;fill-opacity:1;fill-rule:nonzero;stroke:none"
           id="path136" /><g
           id="g138"
           transform="translate(1545.199,591.5898)"><path
             d="M 0,0 -7.362,16.479 -14.725,0 Z m 1.184,-2.629 h -17.092 l -3.681,-8.195 h -3.374 l 14.024,30.677 h 3.198 L 8.283,-10.824 H 4.865 Z"
             style="fill:#262262;fill-opacity:1;fill-rule:nonzero;stroke:none"
             id="path140" /></g><g
           id="g142"
           transform="translate(1567.3298,611.4424)"><path
             d="m 0,0 h 3.243 v -27.872 h 17.178 v -2.805 H 0 Z"
             style="fill:#262262;fill-opacity:1;fill-rule:nonzero;stroke:none"
             id="path144" /></g><path
           d="m 1601.905,611.442 h 3.243 v -30.677 h -3.243 z"
           style="fill:#262262;fill-opacity:1;fill-rule:nonzero;stroke:none"
           id="path146" /><g
           id="g148"
           transform="translate(1620.9675,584.4912)"><path
             d="m 0,0 1.271,2.498 c 2.191,-2.147 6.091,-3.726 10.123,-3.726 5.741,0 8.239,2.411 8.239,5.435 0,8.414 -18.888,3.243 -18.888,14.593 0,4.513 3.506,8.414 11.307,8.414 3.462,0 7.055,-1.008 9.509,-2.717 l -1.095,-2.586 c -2.63,1.709 -5.697,2.542 -8.414,2.542 -5.61,0 -8.108,-2.498 -8.108,-5.565 0,-8.414 18.888,-3.33 18.888,-14.506 0,-4.514 -3.594,-8.37 -11.438,-8.37 C 6.793,-3.988 2.279,-2.366 0,0"
             style="fill:#262262;fill-opacity:1;fill-rule:nonzero;stroke:none"
             id="path150" /></g><g
           id="g152"
           transform="translate(1665.1404,608.6377)"><path
             d="M 0,0 H -10.78 V 2.805 H 14.023 V 0 H 3.243 V -27.872 H 0 Z"
             style="fill:#262262;fill-opacity:1;fill-rule:nonzero;stroke:none"
             id="path154" /></g><g
           id="g156"
           transform="translate(1689.6814,584.4912)"><path
             d="m 0,0 1.271,2.498 c 2.191,-2.147 6.091,-3.726 10.123,-3.726 5.741,0 8.239,2.411 8.239,5.435 0,8.414 -18.888,3.243 -18.888,14.593 0,4.513 3.506,8.414 11.307,8.414 3.462,0 7.055,-1.008 9.509,-2.717 l -1.095,-2.586 c -2.63,1.709 -5.697,2.542 -8.414,2.542 -5.61,0 -8.108,-2.498 -8.108,-5.565 0,-8.414 18.888,-3.33 18.888,-14.506 0,-4.514 -3.594,-8.37 -11.438,-8.37 C 6.793,-3.988 2.279,-2.366 0,0"
             style="fill:#262262;fill-opacity:1;fill-rule:nonzero;stroke:none"
             id="path158" /></g></g></g></g></svg>
